<svg width="200" height="49.8" viewBox="0 0 406 101" fill="none" xmlns="http://www.w3.org/2000/svg">
<rect x="324" y="2" width="80" height="97" stroke="white" stroke-width="4"/>
<path fill-rule="evenodd" clip-rule="evenodd" d="M324 0H0V101H324V0ZM43.35 35.6C43.3167 35.3333 43.1667 35.1 42.9 34.9C41.4 33.8333 39.7 33 37.8 32.4C35.9333 31.8 33.9833 31.5 31.95 31.5C29.55 31.5 27.3 31.95 25.2 32.85C23.1 33.75 21.25 35.0167 19.65 36.65C18.05 38.25 16.7833 40.15 15.85 42.35C14.95 44.5167 14.5 46.9 14.5 49.5C14.5 52.1 14.95 54.5 15.85 56.7C16.7833 58.8667 18.05 60.7667 19.65 62.4C21.25 64 23.1 65.25 25.2 66.15C27.3 67.05 29.55 67.5 31.95 67.5C33.3167 67.5 34.6833 67.3333 36.05 67C37.4167 66.7 38.7 66.2833 39.9 65.75C41.1333 65.2167 42.15 64.6667 42.95 64.1C43.1833 63.9333 43.3167 63.7167 43.35 63.45C43.3833 63.1833 43.3167 62.9333 43.15 62.7C42.9833 62.4667 42.7667 62.3333 42.5 62.3C42.2333 62.2667 41.9833 62.3333 41.75 62.5C40.35 63.4333 38.8333 64.1833 37.2 64.75C35.5667 65.3167 33.8167 65.6 31.95 65.6C29.8167 65.6 27.8167 65.2167 25.95 64.45C24.1167 63.65 22.5 62.5333 21.1 61.1C19.7 59.6667 18.6 57.9667 17.8 56C17 54.0333 16.6 51.8667 16.6 49.5C16.6 47.1333 17 44.9667 17.8 43C18.6 41.0333 19.7 39.3333 21.1 37.9C22.5 36.4667 24.1167 35.3667 25.95 34.6C27.8167 33.8 29.8167 33.4 31.95 33.4C33.8167 33.4 35.5667 33.6833 37.2 34.25C38.8667 34.8167 40.4 35.5833 41.8 36.55C42.0333 36.6833 42.2667 36.75 42.5 36.75C42.7667 36.7167 42.9833 36.5833 43.15 36.35C43.3167 36.0833 43.3833 35.8333 43.35 35.6ZM49.5055 66.7C49.7055 66.9 49.9555 67 50.2555 67C50.5221 67 50.7555 66.9 50.9555 66.7C51.1555 66.5 51.2555 66.2667 51.2555 66V53.5C51.2555 52.3333 51.5055 51.1333 52.0055 49.9C52.5055 48.6667 53.1721 47.5333 54.0055 46.5C54.8721 45.4333 55.8221 44.5833 56.8555 43.95C57.8888 43.3167 58.9388 43 60.0055 43C60.5388 43 60.9388 43.0833 61.2055 43.25C61.5055 43.3833 61.7555 43.45 61.9555 43.45C62.2221 43.45 62.4388 43.35 62.6055 43.15C62.7721 42.95 62.8555 42.7 62.8555 42.4C62.8555 41.9 62.5888 41.5833 62.0555 41.45C61.5221 41.3167 61.0221 41.25 60.5555 41.25C58.9221 41.25 57.4721 41.6167 56.2055 42.35C54.9721 43.05 53.9221 43.9833 53.0555 45.15C52.3058 46.1303 51.7058 47.1854 51.2555 48.3153V43.05C51.2555 42.7833 51.1555 42.55 50.9555 42.35C50.7888 42.15 50.5555 42.05 50.2555 42.05C49.9888 42.05 49.7555 42.15 49.5555 42.35C49.3555 42.55 49.2555 42.7833 49.2555 43.05V66C49.2555 66.2667 49.3388 66.5 49.5055 66.7ZM71.1406 65.9C73.074 66.9667 75.2906 67.5 77.7906 67.5C79.7573 67.5 81.5406 67 83.1406 66C84.774 65 86.1073 63.8333 87.1406 62.5C87.274 62.3333 87.3406 62.1333 87.3406 61.9C87.3406 61.6667 87.2573 61.4667 87.0906 61.3C86.924 61.1 86.724 61 86.4906 61C86.1906 61 85.9073 61.15 85.6406 61.45C85.1406 62.1833 84.4906 62.8667 83.6906 63.5C82.8906 64.1333 81.9906 64.65 80.9906 65.05C79.9906 65.4167 78.924 65.6 77.7906 65.6C75.424 65.6 73.424 65.0833 71.7906 64.05C70.1906 63.0167 68.974 61.65 68.1406 59.95C67.3406 58.25 66.9406 56.3833 66.9406 54.35C66.9406 54.1301 66.9446 53.9134 66.9524 53.7H86.5906C86.8573 53.7 87.0906 53.6 87.2906 53.4C87.4906 53.1667 87.5906 52.9167 87.5906 52.65C87.524 50.6833 87.1573 49 86.4906 47.6C85.8573 46.1667 85.0073 44.9833 83.9406 44.05C82.9073 43.0833 81.724 42.3833 80.3906 41.95C79.0573 41.4833 77.6906 41.25 76.2906 41.25C74.3573 41.25 72.524 41.7833 70.7906 42.85C69.0906 43.8833 67.6906 45.3833 66.5906 47.35C65.524 49.3167 64.9906 51.7 64.9906 54.5C64.9906 57.1333 65.5406 59.4333 66.6406 61.4C67.7406 63.3333 69.2406 64.8333 71.1406 65.9ZM67.1403 51.8C67.2819 50.9547 67.4986 50.1714 67.7906 49.45C68.3906 48.05 69.1573 46.9 70.0906 46C71.024 45.0667 72.0406 44.3833 73.1406 43.95C74.2406 43.4833 75.2906 43.25 76.2906 43.25C77.724 43.25 79.1073 43.5667 80.4406 44.2C81.774 44.8 82.9073 45.7 83.8406 46.9C84.8073 48.1 85.374 49.5833 85.5406 51.35V51.8H67.1403ZM115.869 42.35C115.702 42.15 115.469 42.05 115.169 42.05C114.869 42.05 114.619 42.15 114.419 42.35C114.252 42.55 114.169 42.7833 114.169 43.05V47.5C113.636 46.2333 112.886 45.1333 111.919 44.2C110.986 43.2667 109.886 42.55 108.619 42.05C107.352 41.5167 106.002 41.25 104.569 41.25C102.369 41.25 100.386 41.8167 98.6191 42.95C96.8858 44.05 95.5025 45.5833 94.4691 47.55C93.4691 49.4833 92.9691 51.7167 92.9691 54.25C92.9691 56.75 93.4691 59 94.4691 61C95.4691 63 96.8358 64.5833 98.5691 65.75C100.336 66.9167 102.336 67.5 104.569 67.5C106.036 67.5 107.402 67.2333 108.669 66.7C109.936 66.1333 111.036 65.4 111.969 64.5C112.902 63.6 113.636 62.6 114.169 61.5V66C114.169 66.2667 114.252 66.5 114.419 66.7C114.619 66.9 114.869 67 115.169 67C115.436 67 115.669 66.9 115.869 66.7C116.069 66.5 116.169 66.2667 116.169 66V43.05C116.169 42.7833 116.069 42.55 115.869 42.35ZM109.669 64.15C108.202 65.1167 106.536 65.6 104.669 65.6C102.802 65.6 101.136 65.1167 99.6691 64.15C98.2025 63.15 97.0525 61.8 96.2191 60.1C95.3858 58.3667 94.9691 56.4167 94.9691 54.25C94.9691 52.0833 95.3858 50.1667 96.2191 48.5C97.0858 46.8333 98.2525 45.5333 99.7191 44.6C101.186 43.6333 102.836 43.15 104.669 43.15C106.536 43.15 108.202 43.65 109.669 44.65C111.136 45.6167 112.286 46.95 113.119 48.65C113.952 50.3167 114.369 52.1833 114.369 54.25C114.369 56.4167 113.952 58.3667 113.119 60.1C112.286 61.8 111.136 63.15 109.669 64.15ZM126.251 41.85H122.151C121.917 41.85 121.701 41.95 121.501 42.15C121.301 42.3167 121.201 42.5333 121.201 42.8C121.201 43.0333 121.301 43.25 121.501 43.45C121.701 43.65 121.917 43.75 122.151 43.75H126.251V61.65C126.251 63.1167 126.451 64.2333 126.851 65C127.251 65.7333 127.734 66.25 128.301 66.55C128.901 66.8167 129.451 66.9667 129.951 67H131.051C131.617 67 132.084 66.9 132.451 66.7C132.851 66.4667 133.051 66.2 133.051 65.9C133.051 65.6667 132.967 65.4667 132.801 65.3C132.634 65.1 132.434 65 132.201 65C131.967 65 131.767 65.0333 131.601 65.1C131.434 65.1667 131.234 65.2 131.001 65.2C130.601 65.2 130.184 65.1333 129.751 65C129.317 64.8333 128.951 64.5 128.651 64C128.384 63.4667 128.251 62.65 128.251 61.55V43.75H133.751C134.017 43.75 134.234 43.6667 134.401 43.5C134.601 43.3 134.701 43.0667 134.701 42.8C134.701 42.5667 134.601 42.35 134.401 42.15C134.234 41.95 134.017 41.85 133.751 41.85H128.251V35.5C128.251 35.2333 128.151 35 127.951 34.8C127.784 34.6 127.551 34.5 127.251 34.5C126.984 34.5 126.751 34.6 126.551 34.8C126.351 35 126.251 35.2333 126.251 35.5V41.85ZM141.971 66.7C142.171 66.5 142.271 66.2667 142.271 66V42.25C142.271 41.9833 142.171 41.75 141.971 41.55C141.804 41.35 141.571 41.25 141.271 41.25C141.004 41.25 140.771 41.35 140.571 41.55C140.371 41.75 140.271 41.9833 140.271 42.25V66C140.271 66.2667 140.354 66.5 140.521 66.7C140.721 66.9 140.971 67 141.271 67C141.538 67 141.771 66.9 141.971 66.7ZM139.971 37.4C140.304 37.7 140.738 37.85 141.271 37.85C141.771 37.85 142.171 37.7 142.471 37.4C142.804 37.1 142.971 36.7167 142.971 36.25V35.85C142.971 35.3833 142.804 35 142.471 34.7C142.171 34.4 141.788 34.25 141.321 34.25C140.788 34.25 140.354 34.4 140.021 34.7C139.688 35 139.521 35.3833 139.521 35.85V36.25C139.521 36.7167 139.671 37.1 139.971 37.4ZM149.874 41.35C149.707 41.2167 149.54 41.15 149.374 41.15C149.007 41.15 148.74 41.25 148.574 41.45C148.407 41.65 148.324 41.8833 148.324 42.15V42.4L148.424 42.6L158.424 66.35C158.49 66.55 158.607 66.7167 158.774 66.85C158.974 66.95 159.174 67 159.374 67C159.84 67 160.157 66.7833 160.324 66.35L170.274 42.55L170.374 42.35C170.407 42.25 170.424 42.1167 170.424 41.95C170.424 41.6833 170.307 41.4833 170.074 41.35C169.84 41.2167 169.641 41.15 169.474 41.15C168.94 41.15 168.59 41.3667 168.424 41.8L159.347 63.5265L150.274 41.8C150.207 41.6 150.074 41.45 149.874 41.35ZM180.809 65.9C182.742 66.9667 184.959 67.5 187.459 67.5C189.425 67.5 191.209 67 192.809 66C194.442 65 195.775 63.8333 196.809 62.5C196.942 62.3333 197.009 62.1333 197.009 61.9C197.009 61.6667 196.925 61.4667 196.759 61.3C196.592 61.1 196.392 61 196.159 61C195.859 61 195.575 61.15 195.309 61.45C194.809 62.1833 194.159 62.8667 193.359 63.5C192.559 64.1333 191.659 64.65 190.659 65.05C189.659 65.4167 188.592 65.6 187.459 65.6C185.092 65.6 183.092 65.0833 181.459 64.05C179.859 63.0167 178.642 61.65 177.809 59.95C177.009 58.25 176.609 56.3833 176.609 54.35C176.609 54.1301 176.613 53.9134 176.62 53.7H196.259C196.525 53.7 196.759 53.6 196.959 53.4C197.159 53.1667 197.259 52.9167 197.259 52.65C197.192 50.6833 196.825 49 196.159 47.6C195.525 46.1667 194.675 44.9833 193.609 44.05C192.575 43.0833 191.392 42.3833 190.059 41.95C188.725 41.4833 187.359 41.25 185.959 41.25C184.025 41.25 182.192 41.7833 180.459 42.85C178.759 43.8833 177.359 45.3833 176.259 47.35C175.192 49.3167 174.659 51.7 174.659 54.5C174.659 57.1333 175.209 59.4333 176.309 61.4C177.409 63.3333 178.909 64.8333 180.809 65.9ZM176.808 51.8C176.95 50.9547 177.167 50.1714 177.459 49.45C178.059 48.05 178.825 46.9 179.759 46C180.692 45.0667 181.709 44.3833 182.809 43.95C183.909 43.4833 184.959 43.25 185.959 43.25C187.392 43.25 188.775 43.5667 190.109 44.2C191.442 44.8 192.575 45.7 193.509 46.9C194.475 48.1 195.042 49.5833 195.209 51.35V51.8H176.808ZM225.092 33.4C223.225 32.4667 221.075 32 218.642 32H206.442C205.742 32 205.142 32.25 204.642 32.75C204.142 33.2167 203.892 33.8167 203.892 34.55V64.45C203.892 65.1833 204.142 65.8 204.642 66.3C205.142 66.7667 205.742 67 206.442 67H218.642C221.908 67 224.642 66.2167 226.842 64.65C229.042 63.0833 230.708 60.9833 231.842 58.35C232.975 55.6833 233.542 52.7333 233.542 49.5C233.542 47.1333 233.225 44.9 232.592 42.8C231.958 40.6667 231.008 38.8 229.742 37.2C228.508 35.5667 226.958 34.3 225.092 33.4ZM223.892 60.45C222.425 61.6167 220.508 62.2 218.142 62.2H209.142V36.8H218.142C219.908 36.8 221.408 37.15 222.642 37.85C223.908 38.5167 224.942 39.45 225.742 40.65C226.575 41.8167 227.175 43.1667 227.542 44.7C227.942 46.2 228.142 47.8 228.142 49.5C228.142 51.8 227.792 53.9167 227.092 55.85C226.425 57.75 225.358 59.2833 223.892 60.45ZM262.973 60.95C264.14 58.8833 264.723 56.5167 264.723 53.85C264.723 51.15 264.14 48.7833 262.973 46.75C261.807 44.6833 260.223 43.0667 258.223 41.9C256.223 40.7 253.973 40.1 251.473 40.1C248.973 40.1 246.723 40.7 244.723 41.9C242.723 43.0667 241.123 44.6833 239.923 46.75C238.757 48.7833 238.173 51.15 238.173 53.85C238.173 56.5167 238.757 58.8833 239.923 60.95C241.123 62.9833 242.723 64.5833 244.723 65.75C246.723 66.9167 248.973 67.5 251.473 67.5C253.973 67.5 256.223 66.9167 258.223 65.75C260.223 64.5833 261.807 62.9833 262.973 60.95ZM258.623 49.1C259.357 50.4333 259.723 52.0167 259.723 53.85C259.723 55.6167 259.357 57.1833 258.623 58.55C257.89 59.9167 256.89 60.9833 255.623 61.75C254.39 62.5167 253.007 62.9 251.473 62.9C249.94 62.9 248.54 62.5167 247.273 61.75C246.007 60.9833 245.007 59.9167 244.273 58.55C243.54 57.1833 243.173 55.6167 243.173 53.85C243.173 52.0167 243.54 50.4333 244.273 49.1C245.007 47.7333 246.007 46.6667 247.273 45.9C248.54 45.1 249.94 44.7 251.473 44.7C253.007 44.7 254.39 45.1 255.623 45.9C256.89 46.6667 257.89 47.7333 258.623 49.1ZM272.783 41H270.033C269.366 41 268.799 41.2167 268.333 41.65C267.899 42.0833 267.683 42.6333 267.683 43.3C267.683 43.9333 267.899 44.4833 268.333 44.95C268.799 45.3833 269.366 45.6 270.033 45.6H272.783V60.45C272.783 62.05 273.016 63.3 273.483 64.2C273.949 65.0667 274.533 65.7 275.233 66.1C275.966 66.5 276.716 66.75 277.483 66.85C278.249 66.95 278.916 67 279.483 67C280.483 67 281.416 66.75 282.283 66.25C283.149 65.75 283.583 65.1 283.583 64.3C283.583 63.6667 283.416 63.1667 283.083 62.8C282.749 62.4333 282.383 62.25 281.983 62.25C281.583 62.25 281.233 62.3167 280.933 62.45C280.666 62.5833 280.349 62.65 279.983 62.65C279.616 62.65 279.249 62.5833 278.883 62.45C278.549 62.3167 278.283 62.0667 278.083 61.7C277.883 61.3333 277.783 60.85 277.783 60.25V45.6H281.783C282.449 45.6 282.999 45.3833 283.433 44.95C283.899 44.5167 284.133 43.9833 284.133 43.35C284.133 42.6833 283.899 42.1333 283.433 41.7C282.999 41.2333 282.449 41 281.783 41H277.783V37.05C277.783 36.3167 277.549 35.7167 277.083 35.25C276.616 34.75 276.016 34.5 275.283 34.5C274.583 34.5 273.983 34.75 273.483 35.25C273.016 35.7167 272.783 36.3167 272.783 37.05V41ZM288.696 61.3C288.663 61.9 288.796 62.4333 289.096 62.9C290.396 64.6 291.98 65.8 293.846 66.5C295.746 67.1667 297.646 67.5 299.546 67.5C301.146 67.5 302.663 67.2 304.096 66.6C305.563 66 306.763 65.1333 307.696 64C308.663 62.8333 309.146 61.4333 309.146 59.8C309.146 58.4 308.88 57.25 308.346 56.35C307.846 55.4167 307.18 54.6667 306.346 54.1C305.546 53.5 304.63 53.0167 303.596 52.65C302.596 52.2833 301.58 51.9667 300.546 51.7C299.48 51.4333 298.496 51.1333 297.596 50.8C296.696 50.4667 295.963 50.05 295.396 49.55C294.863 49.05 294.596 48.3833 294.596 47.55C294.596 46.65 294.83 45.9667 295.296 45.5C295.763 45.0333 296.33 44.7167 296.996 44.55C297.696 44.35 298.363 44.25 298.996 44.25C300.263 44.25 301.396 44.4833 302.396 44.95C303.396 45.3833 304.213 46 304.846 46.8C305.213 47.1333 305.68 47.3167 306.246 47.35C306.813 47.3833 307.296 47.2333 307.696 46.9C308.296 46.4333 308.563 45.9 308.496 45.3C308.463 44.7 308.28 44.1833 307.946 43.75C307.213 42.8833 306.346 42.1833 305.346 41.65C304.346 41.1167 303.313 40.7333 302.246 40.5C301.18 40.2333 300.163 40.1 299.196 40.1C297.53 40.1 295.98 40.4167 294.546 41.05C293.146 41.6833 291.996 42.5667 291.096 43.7C290.23 44.8333 289.796 46.1833 289.796 47.75C289.796 49.1167 290.063 50.2667 290.596 51.2C291.163 52.1333 291.88 52.9 292.746 53.5C293.613 54.0667 294.58 54.5333 295.646 54.9C296.746 55.2667 297.83 55.6 298.896 55.9C299.896 56.1667 300.83 56.4667 301.696 56.8C302.563 57.1 303.263 57.5 303.796 58C304.33 58.5 304.596 59.1667 304.596 60C304.596 60.9333 304.346 61.65 303.846 62.15C303.346 62.6167 302.746 62.95 302.046 63.15C301.346 63.3167 300.663 63.4167 299.996 63.45C298.363 63.45 296.963 63.15 295.796 62.55C294.663 61.95 293.63 61.1333 292.696 60.1C292.23 59.6333 291.73 59.3833 291.196 59.35C290.696 59.2833 290.213 59.4 289.746 59.7C289.08 60.1333 288.73 60.6667 288.696 61.3Z" fill="white"/>
<circle cx="344" cy="19" r="10" fill="#98e4ff"/>
<circle cx="382" cy="43" r="12" fill="#80b3ff"/>
<circle cx="354" cy="76" r="16" fill="#687eff"/>
</svg>
